<svg width="203" height="202" xmlns="http://www.w3.org/2000/svg" xmlns:xlink="http://www.w3.org/1999/xlink" overflow="hidden"><g transform="translate(-1282 -230)"><path d="M1283.5 331C1283.5 276.048 1328.05 231.5 1383 231.5L1384 231.5C1438.95 231.5 1483.5 276.048 1483.5 331L1483.5 331C1483.5 385.952 1438.95 430.5 1384 430.5L1383 430.5C1328.05 430.5 1283.5 385.952 1283.5 331Z" stroke="#FFFFFF" stroke-miterlimit="8" fill="#482A7E" fill-rule="evenodd"/><path d="M1332.19 329.169C1330.77 328.341 1329.55 327.427 1328.19 326.884 1325.69 325.887 1324.9 324.227 1324.96 321.562 1325.15 314.619 1325.08 307.669 1325 300.723 1324.97 298.767 1325.74 297.548 1327.39 296.613 1333.77 292.994 1340.14 289.342 1346.48 285.649 1348 284.764 1349.36 284.78 1350.86 285.651 1357.27 289.372 1363.7 293.068 1370.14 296.729 1371.3 297.388 1371.89 298.279 1371.93 299.566 1371.95 300.452 1371.95 301.339 1371.96 302.226 1371.99 306.005 1371.2 306.985 1367.12 308.083 1366.25 306.935 1367.47 305.463 1366.59 304.281 1365.52 304.058 1364.84 304.904 1364.04 305.349 1360.29 307.448 1356.58 309.628 1352.84 311.746 1351.82 312.323 1351.02 312.937 1351.02 314.27 1351.06 319.295 1351.04 324.321 1351.06 329.346 1351.06 329.69 1351.22 330.033 1351.3 330.357 1352.76 330.763 1353.57 329.095 1355.03 329.473 1355.16 331.184 1355.92 333.257 1354.62 334.509 1352.9 336.16 1350.7 337.414 1348.26 337.96 1347.5 338.13 1346.87 337.576 1346.22 337.206 1341.59 334.551 1336.96 331.902 1332.19 329.169M1339.92 295.146C1337.72 296.578 1335.22 297.54 1332.96 299.44 1338.08 302.367 1342.96 305.143 1347.82 307.952 1348.8 308.518 1349.51 307.991 1350.28 307.551 1354.26 305.265 1358.24 302.982 1362.21 300.681 1362.75 300.367 1363.51 300.221 1363.55 299.05 1363.48 299.007 1363.22 298.855 1362.96 298.707 1358.53 296.169 1354.09 293.642 1349.67 291.083 1348.63 290.483 1347.73 290.666 1346.76 291.237 1344.59 292.515 1342.39 293.734 1339.92 295.146M1339.01 326.987C1341.21 328.111 1343.18 329.696 1345.61 330.506 1345.76 330.146 1345.91 329.949 1345.91 329.752 1345.93 324.656 1345.94 319.56 1345.96 314.464 1345.97 313.167 1345.16 312.505 1344.13 311.93 1340.64 309.98 1337.17 307.977 1333.68 306.027 1332.68 305.468 1331.83 304.51 1330.49 304.617 1330.38 304.829 1330.21 305.018 1330.21 305.208 1330.17 310.377 1330.15 315.546 1330.12 320.715 1330.12 321.868 1330.91 322.373 1331.78 322.861 1334.1 324.167 1336.41 325.498 1339.01 326.987Z" fill="#FFFFFF" fill-rule="evenodd"/><path d="M1414.21 287.081C1414.55 286.887 1414.77 286.799 1414.94 286.658 1417.89 284.242 1420.62 284.649 1423.78 286.625 1429.33 290.099 1435.1 293.216 1440.84 296.385 1442.36 297.224 1442.97 298.277 1442.96 299.958 1442.91 307.48 1442.91 315.002 1442.96 322.524 1442.96 324.211 1442.28 325.312 1440.82 326.137 1434.32 329.795 1427.82 333.457 1421.38 337.21 1419.58 338.257 1418 338.282 1416.34 337.104 1416.09 336.931 1415.83 336.777 1415.57 336.622 1411.82 334.381 1411.67 334.038 1412.5 329.396 1413.89 328.937 1414.68 330.674 1416.22 330.319 1416.67 328.972 1416.44 327.484 1416.46 326.04 1416.51 322.392 1416.44 318.742 1416.47 315.093 1416.47 313.815 1416.23 312.751 1415 312.062 1410.54 309.551 1406.09 307.018 1401.63 304.508 1401.39 304.373 1401.06 304.376 1400.79 304.316 1399.67 305.457 1400.81 307.04 1399.66 308.39 1398.11 307.208 1395.35 307.148 1395.22 304.684 1395.06 301.689 1393.95 298.305 1397.93 296.264 1403.42 293.443 1408.7 290.216 1414.21 287.081M1434.91 323.778C1437.39 322.923 1437.94 321.142 1437.82 318.703 1437.63 314.615 1437.78 310.512 1437.74 306.416 1437.73 305.646 1438.02 304.776 1437.15 303.951 1432.35 306.693 1427.52 309.447 1422.7 312.205 1421.9 312.663 1421.6 313.383 1421.6 314.272 1421.62 319.41 1421.62 324.55 1421.63 329.689 1421.63 330.075 1421.74 330.423 1422.35 330.726 1426.51 328.788 1430.48 326.2 1434.91 323.778M1425.07 305.152C1428.3 303.303 1431.54 301.453 1435.18 299.366 1431.91 297.494 1429.05 295.889 1426.21 294.236 1418.96 290.007 1418.96 289.981 1411.71 294.226 1409.01 295.804 1406.14 297.105 1403.67 299.027 1403.8 299.296 1403.84 299.479 1403.94 299.54 1407.19 301.431 1410.65 303.034 1413.64 305.261 1417.52 308.151 1421.04 308.624 1425.07 305.152Z" fill="#FFFFFF" fill-rule="evenodd"/><path d="M1375.26 393.741C1370.77 391.194 1366.45 388.694 1362.07 386.304 1360.55 385.474 1359.95 384.377 1359.96 382.684 1360.01 375.331 1360.01 367.978 1359.96 360.625 1359.95 358.618 1360.58 357.132 1362.52 356.294 1363.21 355.996 1363.83 355.542 1364.48 355.16 1367.38 353.462 1368.97 353.777 1371.42 356.564 1370.79 357.779 1369.24 357.809 1368.41 358.783 1368.42 359.58 1369.15 359.69 1369.62 359.965 1373.86 362.441 1378.12 364.895 1382.39 367.323 1383.16 367.76 1384.01 368.365 1384.94 367.84 1389.87 365.074 1394.77 362.27 1399.72 359.461 1398.98 357.945 1397.14 358.068 1396.49 356.466 1398.23 355.497 1399.61 353.417 1401.96 354.142 1406.43 355.518 1407.92 357.393 1407.92 360.917 1407.93 367.82 1407.87 374.723 1407.96 381.625 1407.99 383.804 1407.31 385.284 1405.31 386.386 1398.89 389.937 1392.53 393.588 1386.19 397.268 1384.48 398.261 1382.97 398.226 1381.31 397.198 1379.38 396.003 1377.37 394.947 1375.26 393.741M1401 364.398C1396.75 366.838 1392.51 369.301 1388.23 371.703 1387.14 372.314 1386.53 373.027 1386.55 374.345 1386.6 379.435 1386.58 384.527 1386.6 389.618 1386.6 390.056 1386.55 390.538 1387.35 390.896 1392.04 388.225 1396.88 385.47 1401.71 382.711 1402.35 382.349 1402.72 381.82 1402.72 381.069 1402.72 375.754 1402.72 370.438 1402.71 365.122 1402.71 364.114 1402.29 363.712 1401 364.398M1377.74 370.786C1373.67 368.566 1369.79 366.001 1365.18 363.875 1365.18 367.933 1365.52 371.624 1365.09 375.223 1364.51 380.08 1365.96 383.189 1370.71 385.142 1374.28 386.612 1377.5 388.915 1380.89 390.847 1381.59 389.835 1381.36 388.99 1381.37 388.2 1381.39 384.381 1381.18 380.549 1381.43 376.746 1381.63 373.875 1380.75 371.974 1377.74 370.786Z" fill="#FFFFFF" fill-rule="evenodd"/><path d="M1324.98 339.855C1324.93 338.105 1325.74 337.112 1327.03 336.409 1327.83 335.977 1328.59 335.49 1329.38 335.048 1332.4 333.349 1333.82 333.625 1336.35 336.417 1335.81 337.724 1334.23 337.744 1333.39 338.755 1333.49 339.654 1334.33 339.838 1334.93 340.188 1339.02 342.587 1343.17 344.894 1347.24 347.338 1348.51 348.1 1349.51 348.156 1350.75 347.33 1352.23 346.341 1353.83 345.538 1355.47 344.604 1356.38 346.025 1357.14 347.209 1357.96 348.481 1356.75 349.974 1355.05 350.636 1353.49 351.459 1352.01 352.242 1351.28 353.23 1351.32 355.009 1351.43 359.682 1351.35 364.361 1351.36 369.037 1351.36 369.621 1351.22 370.251 1351.69 370.801 1353.06 371.096 1353.86 369.534 1355.19 369.65 1356.33 373.419 1355.72 374.532 1352.75 376.543 1349.87 378.489 1347.5 378.45 1344.53 376.572 1338.8 372.951 1332.84 369.696 1326.92 366.393 1325.35 365.516 1324.95 364.33 1324.96 362.689 1325 355.146 1324.98 347.604 1324.98 339.855M1334.08 345.916C1332.86 345.43 1331.94 344.254 1330.41 344.236 1330.31 344.621 1330.18 344.902 1330.18 345.184 1330.15 350.318 1330.15 355.453 1330.09 360.587 1330.08 361.877 1330.89 362.433 1331.84 362.981 1335.23 364.942 1338.59 366.97 1342.02 368.878 1343.22 369.552 1344.36 370.476 1345.93 370.731 1346.05 370.27 1346.21 369.923 1346.21 369.576 1346.23 364.517 1346.22 359.458 1346.24 354.399 1346.25 353.162 1345.55 352.502 1344.57 351.945 1341.15 350.011 1337.76 348.042 1334.08 345.916Z" fill="#FFFFFF" fill-rule="evenodd"/><path d="M1360.03 281.275C1359.64 278.233 1360.84 276.557 1363.42 275.186 1369.62 271.895 1375.66 268.294 1381.72 264.75 1383.33 263.809 1384.83 263.715 1386.42 264.627 1393.04 268.409 1399.66 272.19 1406.29 275.959 1407.39 276.581 1407.9 277.524 1407.94 278.728 1407.98 279.628 1407.95 280.53 1407.95 281.432 1407.95 285.352 1407.38 286.075 1403.2 287.363 1402.28 286.3 1403.07 284.886 1402.53 283.728 1401.69 283.332 1401.1 283.969 1400.49 284.314 1396.41 286.609 1392.37 288.981 1388.27 291.244 1387.06 291.912 1386.45 292.732 1386.6 294.11 1386.66 294.63 1386.63 295.161 1386.61 295.686 1386.44 300.678 1387.66 300.193 1381.61 299.693 1381.19 297.956 1381.48 296.157 1381.42 294.381 1381.38 293.379 1381.34 292.41 1380.33 291.832 1375.67 289.176 1371.02 286.516 1366.36 283.872 1366.19 283.776 1365.93 283.834 1365.7 283.819 1364.72 284.866 1365.75 286.385 1364.82 287.4 1360.99 286.656 1360.04 285.482 1360.03 281.275M1386.09 270.599C1384.57 269.441 1383.16 269.619 1381.53 270.624 1378.07 272.768 1374.48 274.711 1370.94 276.747 1370.12 277.223 1369.13 277.511 1368.66 278.515 1368.8 278.703 1368.89 278.941 1369.06 279.041 1373.7 281.732 1378.35 284.401 1382.98 287.096 1383.97 287.671 1384.83 287.453 1385.74 286.922 1388.95 285.068 1392.21 283.312 1395.37 281.391 1396.74 280.559 1398.37 280.039 1399.6 278.391 1395.1 275.797 1390.74 273.285 1386.09 270.599Z" fill="#FFFFFF" fill-rule="evenodd"/><path d="M1419.43 377.992C1416.7 377.859 1414.6 376.484 1412.85 374.976 1411.28 373.615 1412.37 371.41 1412.25 369.608 1413.8 369.121 1414.56 370.619 1415.85 370.513 1416.65 369.946 1416.37 369.067 1416.38 368.306 1416.42 363.966 1416.36 359.626 1416.43 355.288 1416.46 353.766 1415.87 352.802 1414.49 352.13 1412.94 351.376 1411.34 350.686 1409.96 349.365 1410.68 348.042 1411.41 346.716 1412.33 345.04 1414.08 345.993 1415.83 346.94 1417.57 347.89 1418.35 348.318 1419.08 348.909 1420.08 348.348 1424.91 345.62 1429.75 342.906 1434.65 340.152 1434.01 338.659 1432.22 338.698 1431.56 337.528 1434.17 334.504 1435.76 334.436 1439.22 336.004 1442.28 337.391 1443.05 339.362 1442.95 342.444 1442.73 349.13 1442.87 355.828 1442.9 362.521 1442.91 363.943 1442.63 365.168 1441.28 365.919 1434.06 369.94 1426.84 373.948 1419.43 377.992M1422.93 352.356C1421.63 352.846 1421.5 353.862 1421.51 355.047 1421.55 359.598 1421.51 364.15 1421.53 368.701 1421.53 369.397 1421.29 370.177 1421.91 370.761 1422.7 370.992 1423.25 370.515 1423.82 370.195 1427.81 367.958 1431.76 365.647 1435.79 363.484 1437.25 362.704 1437.79 361.728 1437.76 360.145 1437.68 355.595 1437.73 351.043 1437.69 346.492 1437.68 345.817 1437.99 345.011 1437.07 344.384 1432.48 346.968 1427.85 349.575 1422.93 352.356Z" fill="#FFFFFF" fill-rule="evenodd"/><path d="M1361.96 330.492C1361.96 318.617 1371.59 308.992 1383.46 308.992 1395.33 308.992 1404.96 318.617 1404.96 330.492 1404.96 342.366 1395.33 351.992 1383.46 351.992 1371.59 351.992 1361.96 342.366 1361.96 330.492Z" fill="#FFFFFF" fill-rule="evenodd"/></g></svg>